<svg xmlns="http://www.w3.org/2000/svg" version="1.1" width="146.25" height="180" viewBox="0 0 146.25 180"><defs/><path fill="none" stroke="#000000" d="M 5.625,160.312 L 5.625,19.6875" style="stroke-width: 2px" stroke-width="2"/><path fill="none" stroke="#000000" d="M 118.125,160.312 L 118.125,19.6875" style="stroke-width: 2px" stroke-width="2"/><path fill="#000000" stroke="#000000" d="M 5.625,19.6875 A 56.25,14.0625 0 0,0 118.125,19.6875 L 61.875,19.6875 Z" style="stroke-width: 2.5px;stroke-opacity: 0;fill-opacity: 0" stroke-width="2.5" stroke-opacity="0" stroke-dasharray="0" fill-opacity="0"/><path fill="#000000" stroke="#000000" d="M 5.625,19.6875 A 56.25,14.0625 0 0,0 118.125,19.6875" style="stroke-width: 2.5px;stroke-opacity: 1;fill-opacity: 0" stroke-width="2.5" stroke-opacity="1" stroke-dasharray="0" fill-opacity="0"/><path fill="#000000" stroke="#000000" d="M 118.125,19.6875 A 56.25,14.0625 0 0,0 5.625,19.6875 L 61.875,19.6875 Z" style="stroke-width: 2px;stroke-opacity: 0;fill-opacity: 0" stroke-width="2" stroke-opacity="0" stroke-dasharray="0" fill-opacity="0"/><path fill="#000000" stroke="#000000" d="M 118.125,19.6875 A 56.25,14.0625 0 0,0 5.625,19.6875" style="stroke-width: 2px;stroke-opacity: 1;fill-opacity: 0" stroke-width="2" stroke-opacity="1" stroke-dasharray="0" fill-opacity="0"/><path fill="#000000" stroke="#000000" d="M 5.625,160.312 A 56.25,14.0625 0 0,0 118.125,160.312 L 61.875,160.312 Z" style="stroke-width: 2.5px;stroke-opacity: 0;fill-opacity: 0" stroke-width="2.5" stroke-opacity="0" stroke-dasharray="0" fill-opacity="0"/><path fill="#000000" stroke="#000000" d="M 5.625,160.312 A 56.25,14.0625 0 0,0 118.125,160.312" style="stroke-width: 2.5px;stroke-opacity: 1;fill-opacity: 0" stroke-width="2.5" stroke-opacity="1" stroke-dasharray="0" fill-opacity="0"/><path fill="#000000" stroke="#000000" d="M 118.125,160.312 A 56.25,14.0625 0 0,0 5.625,160.312 L 61.875,160.312 Z" style="stroke-width: 1px;stroke-opacity: 0;fill-opacity: 0" stroke-width="1" stroke-opacity="0" stroke-dasharray="4,3" fill-opacity="0"/><path fill="#000000" stroke="#000000" d="M 118.125,160.312 A 56.25,14.0625 0 0,0 5.625,160.312" style="stroke-width: 1px;stroke-opacity: 1;fill-opacity: 0" stroke-width="1" stroke-opacity="1" stroke-dasharray="4,3" fill-opacity="0"/><path fill="none" stroke="#000000" d="M 61.875,160.312 L 42.1875,160.312" style="stroke-width: 1px" stroke-width="1" stroke-dasharray="1,1"/><path fill="none" stroke="#000000" d="M 5.625,160.312 L 30.9375,160.312" style="stroke-width: 1px" stroke-width="1" stroke-dasharray="1,1"/><ellipse cx="61.87500000000001" cy="160.3125" rx="2.8125" ry="1.40625" fill="#000000" stroke="#000000" style="stroke-width: 0.001px;stroke-opacity: 1;fill-opacity: 1" stroke-width="0.001" stroke-dasharray="0" stroke-opacity="1" fill-opacity="1"/></svg>