<svg xmlns="http://www.w3.org/2000/svg" xmlns:xlink="http://www.w3.org/1999/xlink" version="1.1" id="Layer_1" x="0px" y="0px" viewBox="0 0 100 100" style="enable-background:new 0 0 100 100;" xml:space="preserve">
<g>
	<g>
		<g>
			<circle style="fill:#EE3E54;" cx="13" cy="29" r="2"></circle>
		</g>
		<g>
			<circle style="fill:#F1BC19;" cx="77" cy="13" r="1"></circle>
		</g>
		<g>
			<circle style="fill:#FCE0A2;" cx="50" cy="50" r="37"></circle>
		</g>
		<g>
			<circle style="fill:#F1BC19;" cx="83" cy="15" r="4"></circle>
		</g>
		<g>
			<circle style="fill:#EE3E54;" cx="87" cy="24" r="2"></circle>
		</g>
		<g>
			<circle style="fill:#FBCD59;" cx="81" cy="76" r="2"></circle>
		</g>
		<g>
			<circle style="fill:#FBCD59;" cx="15" cy="63" r="4"></circle>
		</g>
		<g>
			<circle style="fill:#EE3E54;" cx="25" cy="87" r="2"></circle>
		</g>
		<g>
			<circle style="fill:#FFFFFF;" cx="18.5" cy="53.5" r="2.5"></circle>
		</g>
		<g>
			<circle style="fill:#F1BC19;" cx="21" cy="67" r="1"></circle>
		</g>
		<g>
			<circle style="fill:#FFFFFF;" cx="80" cy="34" r="1"></circle>
		</g>
	</g>
</g>
<g>
	<g>
		<path style="fill:#A3A3CD;" d="M27.377,63.3c-1.477,0-2.677-1.209-2.677-2.696V31.396c0-1.487,1.2-2.696,2.677-2.696h45.246    c1.477,0,2.677,1.209,2.677,2.696v29.207c0,1.487-1.2,2.696-2.677,2.696H27.377z"></path>
	</g>
	<g>
		<path style="fill:#472B29;" d="M72.623,29.4c1.09,0,1.977,0.896,1.977,1.996v29.208c0,1.101-0.887,1.996-1.977,1.996H27.377    c-1.09,0-1.977-0.896-1.977-1.996V31.396c0-1.101,0.887-1.996,1.977-1.996H72.623 M72.623,28H27.377    C25.519,28,24,29.528,24,31.396v29.208C24,62.472,25.519,64,27.377,64h45.247C74.481,64,76,62.472,76,60.604V31.396    C76,29.528,74.481,28,72.623,28L72.623,28z"></path>
	</g>
</g>
<g>
	<polygon style="fill:#D0D0E3;" points="71.5,34.758 71.5,52.5 28.5,52.5 28.5,50.242 28.5,43.145 28.5,32.5 70.579,32.5 71.5,32.5     "></polygon>
</g>
<g>
	<path style="fill:#472B29;" d="M28.5,43.646c-0.276,0-0.5-0.224-0.5-0.5V32.5c0-0.276,0.224-0.5,0.5-0.5h40.667   c0.276,0,0.5,0.224,0.5,0.5s-0.224,0.5-0.5,0.5H29v10.146C29,43.422,28.776,43.646,28.5,43.646z"></path>
</g>
<g>
	<path style="fill:#472B29;" d="M71.5,53h-43c-0.276,0-0.5-0.224-0.5-0.5v-2.258c0-0.276,0.224-0.5,0.5-0.5s0.5,0.224,0.5,0.5V52h42   V37.667c0-0.276,0.224-0.5,0.5-0.5s0.5,0.224,0.5,0.5V52.5C72,52.776,71.776,53,71.5,53z"></path>
</g>
<g>
	<path style="fill:#A3A3CD;" d="M50.662,31.073h-1.377c-0.172,0-0.312-0.141-0.312-0.312v-0.043c0-0.172,0.141-0.312,0.312-0.312   h1.377c0.172,0,0.312,0.141,0.312,0.312v0.043C50.975,30.932,50.834,31.073,50.662,31.073z"></path>
</g>
<g>
	<g>
		<path style="fill:#CECCBE;" d="M39.287,74.231c-0.133-0.016-1.835-0.224-1.835-1.919c0-1.651,1.729-1.821,1.925-1.835    c0.001,0,0.003,0,0.004,0c2.069,0,3.79-1.415,3.79-3.155v-3.935h13.662v3.935c0,1.741,1.723,3.157,3.839,3.157    c0.151,0.012,1.88,0.182,1.88,1.833c0,1.658-1.671,1.899-1.906,1.925L39.287,74.231z"></path>
	</g>
	<g>
		<path style="fill:#472B29;" d="M56.133,64.087v3.235c0,2.108,2.002,3.827,4.475,3.856c0.401,0.039,1.244,0.23,1.244,1.134    c0,0.951-0.85,1.174-1.248,1.225l-21.237-0.006c-0.403-0.053-1.215-0.278-1.215-1.219c0-0.911,0.857-1.097,1.239-1.134    c2.476-0.027,4.48-1.746,4.48-3.856v-3.235H56.133 M57.582,62.688H42.422c0.025,0.137,0.049,0.274,0.049,0.416v4.22    c0,1.351-1.412,2.456-3.139,2.456c0,0-2.58,0.154-2.58,2.533c0,2.41,2.536,2.619,2.536,2.619l21.391,0.006    c0,0,2.573-0.215,2.573-2.625c0-2.379-2.58-2.533-2.58-2.533c-1.727,0-3.139-1.105-3.139-2.456v-4.22    C57.533,62.961,57.558,62.824,57.582,62.688L57.582,62.688z"></path>
	</g>
</g>
<g>
	<path style="fill:#472B29;" d="M48.5,71H39c-0.276,0-0.5-0.224-0.5-0.5S38.724,70,39,70h9.5c0.276,0,0.5,0.224,0.5,0.5   S48.776,71,48.5,71z"></path>
</g>
<g>
	<path style="fill:#472B29;" d="M54.5,71H51c-0.276,0-0.5-0.224-0.5-0.5S50.724,70,51,70h3.5c0.276,0,0.5,0.224,0.5,0.5   S54.776,71,54.5,71z"></path>
</g>
<g>
	<path style="fill:#FEFDEF;" d="M27.812,62.688h44.5c1.762,0,2.349-1.029,2.349-2.5L74.667,56H25.658h-0.32l0.007,4.188   C25.345,61.659,26.051,62.688,27.812,62.688z"></path>
</g>
<g>
	<circle style="fill:#CECCBE;" cx="50.002" cy="59.5" r="1.5"></circle>
	<path style="fill:#472B29;" d="M50.002,61.25c-0.965,0-1.75-0.785-1.75-1.75s0.785-1.75,1.75-1.75s1.75,0.785,1.75,1.75   S50.967,61.25,50.002,61.25z M50.002,58.25c-0.689,0-1.25,0.561-1.25,1.25s0.561,1.25,1.25,1.25s1.25-0.561,1.25-1.25   S50.691,58.25,50.002,58.25z"></path>
</g>
<g>
	<rect x="25" y="55" style="fill:#472B29;" width="50" height="1"></rect>
</g>
</svg>